<?xml version="1.0" encoding="UTF-8"?>
<svg xmlns="http://www.w3.org/2000/svg" xmlns:xlink="http://www.w3.org/1999/xlink" width="223px" height="324px" viewBox="0 0 223 324" version="1.1">
<g id="surface1">
<path style="fill-rule:nonzero;fill:rgb(100%,100%,100%);fill-opacity:1;stroke-width:0.499245;stroke-linecap:butt;stroke-linejoin:miter;stroke:rgb(0%,0%,0%);stroke-opacity:1;stroke-miterlimit:4;" d="M 166.83765 235.548124 C 166.83765 239.325144 163.749853 242.417561 159.965471 242.417561 L 7.112178 242.417561 C 3.336577 242.417561 0.24878 239.325144 0.24878 235.548124 L 0.24878 7.118866 C 0.24878 3.341846 3.336577 0.24943 7.112178 0.24943 L 159.965471 0.24943 C 163.749853 0.24943 166.83765 3.341846 166.83765 7.118866 Z M 166.83765 235.548124 " transform="matrix(1.334639,0,0,1.335171,0,-0.000999886)"/>
<path style=" stroke:none;fill-rule:evenodd;fill:rgb(100%,100%,100%);fill-opacity:1;" d="M 159.941406 62.238281 L 159.941406 12.441406 L 110.523438 12.441406 L 110.523438 62.238281 Z M 159.941406 62.238281 "/>
<path style=" stroke:none;fill-rule:evenodd;fill:rgb(87.4509%,0%,0%);fill-opacity:1;" d="M 209.328125 62.238281 L 209.328125 12.441406 L 159.941406 12.441406 L 159.941406 62.238281 Z M 209.328125 62.238281 "/>
<path style=" stroke:none;fill-rule:evenodd;fill:rgb(100%,100%,100%);fill-opacity:1;" d="M 209.328125 112.039062 L 209.328125 62.238281 L 159.941406 62.238281 L 159.941406 112.039062 Z M 209.328125 112.039062 "/>
<path style=" stroke:none;fill-rule:evenodd;fill:rgb(87.4509%,0%,0%);fill-opacity:1;" d="M 159.941406 112.039062 L 159.941406 62.238281 L 110.523438 62.238281 L 110.523438 112.039062 Z M 159.941406 112.039062 "/>
<path style=" stroke:none;fill-rule:evenodd;fill:rgb(100%,100%,100%);fill-opacity:1;" d="M 61.132812 161.832031 L 61.132812 112.039062 L 11.742188 112.039062 L 11.742188 161.832031 Z M 61.132812 161.832031 "/>
<path style=" stroke:none;fill-rule:evenodd;fill:rgb(87.4509%,0%,0%);fill-opacity:1;" d="M 110.523438 161.832031 L 110.523438 112.039062 L 61.132812 112.039062 L 61.132812 161.832031 Z M 110.523438 161.832031 "/>
<path style=" stroke:none;fill-rule:evenodd;fill:rgb(100%,100%,100%);fill-opacity:1;" d="M 159.941406 161.832031 L 159.941406 112.039062 L 110.523438 112.039062 L 110.523438 161.832031 Z M 159.941406 161.832031 "/>
<path style=" stroke:none;fill-rule:evenodd;fill:rgb(87.4509%,0%,0%);fill-opacity:1;" d="M 209.328125 161.832031 L 209.328125 112.039062 L 159.941406 112.039062 L 159.941406 161.832031 Z M 209.328125 161.832031 "/>
<path style=" stroke:none;fill-rule:evenodd;fill:rgb(100%,100%,100%);fill-opacity:1;" d="M 110.523438 112.039062 L 110.523438 62.238281 L 61.132812 62.238281 L 61.132812 112.039062 Z M 110.523438 112.039062 "/>
<path style=" stroke:none;fill-rule:evenodd;fill:rgb(87.4509%,0%,0%);fill-opacity:1;" d="M 61.132812 112.039062 L 61.132812 62.238281 L 11.742188 62.238281 L 11.742188 112.039062 Z M 61.132812 112.039062 "/>
<path style=" stroke:none;fill-rule:evenodd;fill:rgb(100%,100%,100%);fill-opacity:1;" d="M 61.132812 62.238281 L 61.132812 12.441406 L 11.742188 12.441406 L 11.742188 62.238281 Z M 61.132812 62.238281 "/>
<path style=" stroke:none;fill-rule:evenodd;fill:rgb(87.4509%,0%,0%);fill-opacity:1;" d="M 110.523438 62.238281 L 110.523438 12.441406 L 61.132812 12.441406 L 61.132812 62.238281 Z M 110.523438 62.238281 "/>
<path style=" stroke:none;fill-rule:evenodd;fill:rgb(100%,100%,100%);fill-opacity:1;" d="M 110.523438 311.253906 L 110.523438 261.441406 L 61.132812 261.441406 L 61.132812 311.253906 Z M 110.523438 311.253906 "/>
<path style=" stroke:none;fill-rule:evenodd;fill:rgb(87.4509%,0%,0%);fill-opacity:1;" d="M 61.132812 311.253906 L 61.132812 261.441406 L 11.742188 261.441406 L 11.742188 311.253906 Z M 61.132812 311.253906 "/>
<path style=" stroke:none;fill-rule:evenodd;fill:rgb(100%,100%,100%);fill-opacity:1;" d="M 61.132812 261.441406 L 61.132812 211.644531 L 11.742188 211.644531 L 11.742188 261.441406 Z M 61.132812 261.441406 "/>
<path style=" stroke:none;fill-rule:evenodd;fill:rgb(87.4509%,0%,0%);fill-opacity:1;" d="M 110.523438 261.441406 L 110.523438 211.644531 L 61.132812 211.644531 L 61.132812 261.441406 Z M 110.523438 261.441406 "/>
<path style=" stroke:none;fill-rule:evenodd;fill:rgb(100%,100%,100%);fill-opacity:1;" d="M 209.328125 211.644531 L 209.328125 161.832031 L 159.941406 161.832031 L 159.941406 211.644531 Z M 209.328125 211.644531 "/>
<path style=" stroke:none;fill-rule:evenodd;fill:rgb(87.4509%,0%,0%);fill-opacity:1;" d="M 159.941406 211.644531 L 159.941406 161.832031 L 110.523438 161.832031 L 110.523438 211.644531 Z M 159.941406 211.644531 "/>
<path style=" stroke:none;fill-rule:evenodd;fill:rgb(100%,100%,100%);fill-opacity:1;" d="M 110.523438 211.644531 L 110.523438 161.832031 L 61.132812 161.832031 L 61.132812 211.644531 Z M 110.523438 211.644531 "/>
<path style=" stroke:none;fill-rule:evenodd;fill:rgb(87.4509%,0%,0%);fill-opacity:1;" d="M 61.132812 211.644531 L 61.132812 161.832031 L 11.742188 161.832031 L 11.742188 211.644531 Z M 61.132812 211.644531 "/>
<path style=" stroke:none;fill-rule:evenodd;fill:rgb(100%,100%,100%);fill-opacity:1;" d="M 159.941406 261.441406 L 159.941406 211.644531 L 110.523438 211.644531 L 110.523438 261.441406 Z M 159.941406 261.441406 "/>
<path style=" stroke:none;fill-rule:evenodd;fill:rgb(87.4509%,0%,0%);fill-opacity:1;" d="M 209.328125 261.441406 L 209.328125 211.644531 L 159.941406 211.644531 L 159.941406 261.441406 Z M 209.328125 261.441406 "/>
<path style=" stroke:none;fill-rule:evenodd;fill:rgb(100%,100%,100%);fill-opacity:1;" d="M 209.328125 311.253906 L 209.328125 261.441406 L 159.941406 261.441406 L 159.941406 311.253906 Z M 209.328125 311.253906 "/>
<path style=" stroke:none;fill-rule:evenodd;fill:rgb(87.4509%,0%,0%);fill-opacity:1;" d="M 159.941406 311.253906 L 159.941406 261.441406 L 110.523438 261.441406 L 110.523438 311.253906 Z M 159.941406 311.253906 "/>
<path style=" stroke:none;fill-rule:evenodd;fill:rgb(87.4509%,0%,0%);fill-opacity:1;" d="M 153.757812 12.441406 L 159.941406 18.648438 L 116.703125 62.238281 L 110.523438 56.007812 Z M 153.757812 12.441406 "/>
<path style=" stroke:none;fill-rule:evenodd;fill:rgb(100%,100%,100%);fill-opacity:1;" d="M 203.148438 12.441406 L 209.328125 18.648438 L 166.121094 62.238281 L 159.941406 56.007812 L 203.148438 12.441406 "/>
<path style=" stroke:none;fill-rule:evenodd;fill:rgb(87.4509%,0%,0%);fill-opacity:1;" d="M 166.121094 62.238281 L 159.941406 68.472656 L 203.148438 112.039062 L 209.328125 105.804688 Z M 166.121094 62.238281 "/>
<path style=" stroke:none;fill-rule:evenodd;fill:rgb(100%,100%,100%);fill-opacity:1;" d="M 116.703125 62.238281 L 110.523438 68.472656 L 153.757812 112.039062 L 159.941406 105.804688 L 116.703125 62.238281 "/>
<path style=" stroke:none;fill-rule:evenodd;fill:rgb(87.4509%,0%,0%);fill-opacity:1;" d="M 54.949219 112.039062 L 61.132812 118.253906 L 17.910156 161.832031 L 11.742188 155.628906 Z M 54.949219 112.039062 "/>
<path style=" stroke:none;fill-rule:evenodd;fill:rgb(100%,100%,100%);fill-opacity:1;" d="M 104.367188 112.039062 L 110.523438 118.253906 L 67.316406 161.832031 L 61.132812 155.628906 L 104.367188 112.039062 "/>
<path style=" stroke:none;fill-rule:evenodd;fill:rgb(87.4509%,0%,0%);fill-opacity:1;" d="M 153.757812 112.039062 L 159.941406 118.253906 L 116.703125 161.832031 L 110.523438 155.628906 Z M 153.757812 112.039062 "/>
<path style=" stroke:none;fill-rule:evenodd;fill:rgb(100%,100%,100%);fill-opacity:1;" d="M 203.148438 112.039062 L 209.328125 118.253906 L 166.121094 161.832031 L 159.941406 155.628906 L 203.148438 112.039062 "/>
<path style=" stroke:none;fill-rule:evenodd;fill:rgb(87.4509%,0%,0%);fill-opacity:1;" d="M 67.316406 62.238281 L 61.132812 68.472656 L 104.367188 112.039062 L 110.523438 105.804688 Z M 67.316406 62.238281 "/>
<path style=" stroke:none;fill-rule:evenodd;fill:rgb(100%,100%,100%);fill-opacity:1;" d="M 17.910156 62.238281 L 11.742188 68.472656 L 54.949219 112.039062 L 61.132812 105.804688 L 17.910156 62.238281 "/>
<path style=" stroke:none;fill-rule:evenodd;fill:rgb(87.4509%,0%,0%);fill-opacity:1;" d="M 54.949219 12.441406 L 61.132812 18.648438 L 17.910156 62.238281 L 11.742188 56.007812 Z M 54.949219 12.441406 "/>
<path style=" stroke:none;fill-rule:evenodd;fill:rgb(100%,100%,100%);fill-opacity:1;" d="M 104.367188 12.441406 L 110.523438 18.648438 L 67.316406 62.238281 L 61.132812 56.007812 L 104.367188 12.441406 "/>
<path style=" stroke:none;fill-rule:evenodd;fill:rgb(87.4509%,0%,0%);fill-opacity:1;" d="M 67.316406 311.253906 L 61.132812 305.019531 L 104.367188 261.441406 L 110.523438 267.675781 Z M 67.316406 311.253906 "/>
<path style=" stroke:none;fill-rule:evenodd;fill:rgb(100%,100%,100%);fill-opacity:1;" d="M 17.910156 311.253906 L 11.742188 305.019531 L 54.949219 261.441406 L 61.132812 267.675781 L 17.910156 311.253906 "/>
<path style=" stroke:none;fill-rule:evenodd;fill:rgb(87.4509%,0%,0%);fill-opacity:1;" d="M 54.949219 261.441406 L 61.132812 255.207031 L 17.910156 211.644531 L 11.742188 217.878906 Z M 54.949219 261.441406 "/>
<path style=" stroke:none;fill-rule:evenodd;fill:rgb(100%,100%,100%);fill-opacity:1;" d="M 104.367188 261.441406 L 110.523438 255.207031 L 67.316406 211.644531 L 61.132812 217.878906 L 104.367188 261.441406 "/>
<path style=" stroke:none;fill-rule:evenodd;fill:rgb(87.4509%,0%,0%);fill-opacity:1;" d="M 166.121094 211.644531 L 159.941406 205.425781 L 203.148438 161.832031 L 209.328125 168.066406 Z M 166.121094 211.644531 "/>
<path style=" stroke:none;fill-rule:evenodd;fill:rgb(100%,100%,100%);fill-opacity:1;" d="M 116.703125 211.644531 L 110.523438 205.425781 L 153.757812 161.832031 L 159.941406 168.066406 L 116.703125 211.644531 "/>
<path style=" stroke:none;fill-rule:evenodd;fill:rgb(87.4509%,0%,0%);fill-opacity:1;" d="M 67.316406 211.644531 L 61.132812 205.425781 L 104.367188 161.832031 L 110.523438 168.066406 Z M 67.316406 211.644531 "/>
<path style=" stroke:none;fill-rule:evenodd;fill:rgb(100%,100%,100%);fill-opacity:1;" d="M 17.910156 211.644531 L 11.742188 205.425781 L 54.949219 161.832031 L 61.132812 168.066406 L 17.910156 211.644531 "/>
<path style=" stroke:none;fill-rule:evenodd;fill:rgb(87.4509%,0%,0%);fill-opacity:1;" d="M 153.757812 261.441406 L 159.941406 255.207031 L 116.703125 211.644531 L 110.523438 217.878906 Z M 153.757812 261.441406 "/>
<path style=" stroke:none;fill-rule:evenodd;fill:rgb(100%,100%,100%);fill-opacity:1;" d="M 203.148438 261.441406 L 209.328125 255.207031 L 166.121094 211.644531 L 159.941406 217.878906 L 203.148438 261.441406 "/>
<path style=" stroke:none;fill-rule:evenodd;fill:rgb(87.4509%,0%,0%);fill-opacity:1;" d="M 166.121094 311.253906 L 159.941406 305.019531 L 203.148438 261.441406 L 209.328125 267.675781 Z M 166.121094 311.253906 "/>
<path style=" stroke:none;fill-rule:evenodd;fill:rgb(100%,100%,100%);fill-opacity:1;" d="M 116.703125 311.253906 L 110.523438 305.019531 L 153.757812 261.441406 L 159.941406 267.675781 L 116.703125 311.253906 "/>
<path style=" stroke:none;fill-rule:evenodd;fill:rgb(87.4509%,0%,0%);fill-opacity:1;" d="M 116.703125 12.441406 L 110.523438 18.648438 L 153.757812 62.238281 L 159.941406 56.007812 Z M 116.703125 12.441406 "/>
<path style=" stroke:none;fill-rule:evenodd;fill:rgb(87.4509%,0%,0%);fill-opacity:1;" d="M 135.222656 12.441406 L 110.523438 37.347656 L 135.222656 62.238281 L 159.941406 37.347656 Z M 135.222656 12.441406 "/>
<path style=" stroke:none;fill-rule:evenodd;fill:rgb(100%,100%,100%);fill-opacity:1;" d="M 166.121094 12.441406 L 159.941406 18.648438 L 203.148438 62.238281 L 209.328125 56.007812 L 166.121094 12.441406 "/>
<path style=" stroke:none;fill-rule:evenodd;fill:rgb(100%,100%,100%);fill-opacity:1;" d="M 184.613281 12.441406 L 159.941406 37.347656 L 184.613281 62.238281 L 209.328125 37.347656 L 184.613281 12.441406 "/>
<path style=" stroke:none;fill-rule:evenodd;fill:rgb(87.4509%,0%,0%);fill-opacity:1;" d="M 203.148438 62.238281 L 209.328125 68.472656 L 166.121094 112.039062 L 159.941406 105.804688 Z M 203.148438 62.238281 "/>
<path style=" stroke:none;fill-rule:evenodd;fill:rgb(87.4509%,0%,0%);fill-opacity:1;" d="M 184.613281 62.238281 L 209.328125 87.144531 L 184.613281 112.039062 L 159.941406 87.144531 Z M 184.613281 62.238281 "/>
<path style=" stroke:none;fill-rule:evenodd;fill:rgb(100%,100%,100%);fill-opacity:1;" d="M 153.757812 62.238281 L 159.941406 68.472656 L 116.703125 112.039062 L 110.523438 105.804688 L 153.757812 62.238281 "/>
<path style=" stroke:none;fill-rule:evenodd;fill:rgb(100%,100%,100%);fill-opacity:1;" d="M 135.222656 62.238281 L 159.941406 87.144531 L 135.222656 112.039062 L 110.523438 87.144531 L 135.222656 62.238281 "/>
<path style=" stroke:none;fill-rule:evenodd;fill:rgb(87.4509%,0%,0%);fill-opacity:1;" d="M 17.910156 112.039062 L 11.742188 118.253906 L 54.949219 161.832031 L 61.132812 155.628906 Z M 17.910156 112.039062 "/>
<path style=" stroke:none;fill-rule:evenodd;fill:rgb(87.4509%,0%,0%);fill-opacity:1;" d="M 36.457031 112.039062 L 11.742188 136.941406 L 36.457031 161.832031 L 61.132812 136.941406 Z M 36.457031 112.039062 "/>
<path style=" stroke:none;fill-rule:evenodd;fill:rgb(100%,100%,100%);fill-opacity:1;" d="M 67.316406 112.039062 L 61.132812 118.253906 L 104.367188 161.832031 L 110.523438 155.628906 L 67.316406 112.039062 "/>
<path style=" stroke:none;fill-rule:evenodd;fill:rgb(100%,100%,100%);fill-opacity:1;" d="M 85.847656 112.039062 L 61.132812 136.941406 L 85.847656 161.832031 L 110.523438 136.941406 L 85.847656 112.039062 "/>
<path style=" stroke:none;fill-rule:evenodd;fill:rgb(87.4509%,0%,0%);fill-opacity:1;" d="M 116.703125 112.039062 L 110.523438 118.253906 L 153.757812 161.832031 L 159.941406 155.628906 Z M 116.703125 112.039062 "/>
<path style=" stroke:none;fill-rule:evenodd;fill:rgb(87.4509%,0%,0%);fill-opacity:1;" d="M 135.222656 112.039062 L 110.523438 136.941406 L 135.222656 161.832031 L 159.941406 136.941406 Z M 135.222656 112.039062 "/>
<path style=" stroke:none;fill-rule:evenodd;fill:rgb(100%,100%,100%);fill-opacity:1;" d="M 166.121094 112.039062 L 159.941406 118.253906 L 203.148438 161.832031 L 209.328125 155.628906 L 166.121094 112.039062 "/>
<path style=" stroke:none;fill-rule:evenodd;fill:rgb(100%,100%,100%);fill-opacity:1;" d="M 184.613281 112.039062 L 159.941406 136.941406 L 184.613281 161.832031 L 209.328125 136.941406 L 184.613281 112.039062 "/>
<path style=" stroke:none;fill-rule:evenodd;fill:rgb(87.4509%,0%,0%);fill-opacity:1;" d="M 104.367188 62.238281 L 110.523438 68.472656 L 67.316406 112.039062 L 61.132812 105.804688 Z M 104.367188 62.238281 "/>
<path style=" stroke:none;fill-rule:evenodd;fill:rgb(87.4509%,0%,0%);fill-opacity:1;" d="M 85.847656 62.238281 L 110.523438 87.144531 L 85.847656 112.039062 L 61.132812 87.144531 Z M 85.847656 62.238281 "/>
<path style=" stroke:none;fill-rule:evenodd;fill:rgb(100%,100%,100%);fill-opacity:1;" d="M 54.949219 62.238281 L 61.132812 68.472656 L 17.910156 112.039062 L 11.742188 105.804688 L 54.949219 62.238281 "/>
<path style=" stroke:none;fill-rule:evenodd;fill:rgb(100%,100%,100%);fill-opacity:1;" d="M 36.457031 62.238281 L 61.132812 87.144531 L 36.457031 112.039062 L 11.742188 87.144531 L 36.457031 62.238281 "/>
<path style=" stroke:none;fill-rule:evenodd;fill:rgb(87.4509%,0%,0%);fill-opacity:1;" d="M 17.910156 12.441406 L 11.742188 18.648438 L 54.949219 62.238281 L 61.132812 56.007812 Z M 17.910156 12.441406 "/>
<path style=" stroke:none;fill-rule:evenodd;fill:rgb(87.4509%,0%,0%);fill-opacity:1;" d="M 36.457031 12.441406 L 11.742188 37.347656 L 36.457031 62.238281 L 61.132812 37.347656 Z M 36.457031 12.441406 "/>
<path style=" stroke:none;fill-rule:evenodd;fill:rgb(100%,100%,100%);fill-opacity:1;" d="M 67.316406 12.441406 L 61.132812 18.648438 L 104.367188 62.238281 L 110.523438 56.007812 L 67.316406 12.441406 "/>
<path style=" stroke:none;fill-rule:evenodd;fill:rgb(100%,100%,100%);fill-opacity:1;" d="M 85.847656 12.441406 L 61.132812 37.347656 L 85.847656 62.238281 L 110.523438 37.347656 L 85.847656 12.441406 "/>
<path style=" stroke:none;fill-rule:evenodd;fill:rgb(87.4509%,0%,0%);fill-opacity:1;" d="M 104.367188 311.253906 L 110.523438 305.019531 L 67.316406 261.441406 L 61.132812 267.675781 Z M 104.367188 311.253906 "/>
<path style=" stroke:none;fill-rule:evenodd;fill:rgb(87.4509%,0%,0%);fill-opacity:1;" d="M 85.847656 311.253906 L 110.523438 286.332031 L 85.847656 261.441406 L 61.132812 286.332031 Z M 85.847656 311.253906 "/>
<path style=" stroke:none;fill-rule:evenodd;fill:rgb(100%,100%,100%);fill-opacity:1;" d="M 54.949219 311.253906 L 61.132812 305.019531 L 17.910156 261.441406 L 11.742188 267.675781 L 54.949219 311.253906 "/>
<path style=" stroke:none;fill-rule:evenodd;fill:rgb(100%,100%,100%);fill-opacity:1;" d="M 36.457031 311.253906 L 61.132812 286.332031 L 36.457031 261.441406 L 11.742188 286.332031 L 36.457031 311.253906 "/>
<path style=" stroke:none;fill-rule:evenodd;fill:rgb(87.4509%,0%,0%);fill-opacity:1;" d="M 36.457031 261.441406 L 11.742188 236.550781 L 36.457031 211.644531 L 61.132812 236.550781 Z M 36.457031 261.441406 "/>
<path style=" stroke:none;fill-rule:evenodd;fill:rgb(100%,100%,100%);fill-opacity:1;" d="M 67.316406 261.441406 L 61.132812 255.207031 L 104.367188 211.644531 L 110.523438 217.878906 L 67.316406 261.441406 "/>
<path style=" stroke:none;fill-rule:evenodd;fill:rgb(100%,100%,100%);fill-opacity:1;" d="M 85.847656 261.441406 L 61.132812 236.550781 L 85.847656 211.644531 L 110.523438 236.550781 L 85.847656 261.441406 "/>
<path style=" stroke:none;fill-rule:evenodd;fill:rgb(87.4509%,0%,0%);fill-opacity:1;" d="M 203.148438 211.644531 L 209.328125 205.425781 L 166.121094 161.832031 L 159.941406 168.066406 Z M 203.148438 211.644531 "/>
<path style=" stroke:none;fill-rule:evenodd;fill:rgb(87.4509%,0%,0%);fill-opacity:1;" d="M 184.613281 211.644531 L 209.328125 186.738281 L 184.613281 161.832031 L 159.941406 186.738281 Z M 184.613281 211.644531 "/>
<path style=" stroke:none;fill-rule:evenodd;fill:rgb(100%,100%,100%);fill-opacity:1;" d="M 153.757812 211.644531 L 159.941406 205.425781 L 116.703125 161.832031 L 110.523438 168.066406 L 153.757812 211.644531 "/>
<path style=" stroke:none;fill-rule:evenodd;fill:rgb(100%,100%,100%);fill-opacity:1;" d="M 135.222656 211.644531 L 159.941406 186.738281 L 135.222656 161.832031 L 110.523438 186.738281 L 135.222656 211.644531 "/>
<path style=" stroke:none;fill-rule:evenodd;fill:rgb(87.4509%,0%,0%);fill-opacity:1;" d="M 104.367188 211.644531 L 110.523438 205.425781 L 67.316406 161.832031 L 61.132812 168.066406 Z M 104.367188 211.644531 "/>
<path style=" stroke:none;fill-rule:evenodd;fill:rgb(87.4509%,0%,0%);fill-opacity:1;" d="M 85.847656 211.644531 L 110.523438 186.738281 L 85.847656 161.832031 L 61.132812 186.738281 Z M 85.847656 211.644531 "/>
<path style=" stroke:none;fill-rule:evenodd;fill:rgb(100%,100%,100%);fill-opacity:1;" d="M 54.949219 211.644531 L 61.132812 205.425781 L 17.910156 161.832031 L 11.742188 168.066406 L 54.949219 211.644531 "/>
<path style=" stroke:none;fill-rule:evenodd;fill:rgb(100%,100%,100%);fill-opacity:1;" d="M 36.457031 211.644531 L 61.132812 186.738281 L 36.457031 161.832031 L 11.742188 186.738281 L 36.457031 211.644531 "/>
<path style=" stroke:none;fill-rule:evenodd;fill:rgb(87.4509%,0%,0%);fill-opacity:1;" d="M 116.703125 261.441406 L 110.523438 255.207031 L 153.757812 211.644531 L 159.941406 217.878906 Z M 116.703125 261.441406 "/>
<path style=" stroke:none;fill-rule:evenodd;fill:rgb(87.4509%,0%,0%);fill-opacity:1;" d="M 135.222656 261.441406 L 110.523438 236.550781 L 135.222656 211.644531 L 159.941406 236.550781 Z M 135.222656 261.441406 "/>
<path style=" stroke:none;fill-rule:evenodd;fill:rgb(100%,100%,100%);fill-opacity:1;" d="M 166.121094 261.441406 L 159.941406 255.207031 L 203.148438 211.644531 L 209.328125 217.878906 L 166.121094 261.441406 "/>
<path style=" stroke:none;fill-rule:evenodd;fill:rgb(100%,100%,100%);fill-opacity:1;" d="M 184.613281 261.441406 L 159.941406 236.550781 L 184.613281 211.644531 L 209.328125 236.550781 L 184.613281 261.441406 "/>
<path style=" stroke:none;fill-rule:evenodd;fill:rgb(87.4509%,0%,0%);fill-opacity:1;" d="M 203.148438 311.253906 L 209.328125 305.019531 L 166.121094 261.441406 L 159.941406 267.675781 Z M 203.148438 311.253906 "/>
<path style=" stroke:none;fill-rule:evenodd;fill:rgb(87.4509%,0%,0%);fill-opacity:1;" d="M 184.613281 311.253906 L 209.328125 286.332031 L 184.613281 261.441406 L 159.941406 286.332031 Z M 184.613281 311.253906 "/>
<path style=" stroke:none;fill-rule:evenodd;fill:rgb(100%,100%,100%);fill-opacity:1;" d="M 153.757812 311.253906 L 159.941406 305.019531 L 116.703125 261.441406 L 110.523438 267.675781 L 153.757812 311.253906 "/>
<path style=" stroke:none;fill-rule:evenodd;fill:rgb(100%,100%,100%);fill-opacity:1;" d="M 135.222656 311.253906 L 159.941406 286.332031 L 135.222656 261.441406 L 110.523438 286.332031 L 135.222656 311.253906 "/>
<path style=" stroke:none;fill-rule:evenodd;fill:rgb(100%,100%,100%);fill-opacity:1;" d="M 147.589844 49.773438 L 147.589844 24.109375 L 122.875 24.109375 L 122.875 49.773438 Z M 147.589844 49.773438 "/>
<path style=" stroke:none;fill-rule:evenodd;fill:rgb(87.4509%,0%,0%);fill-opacity:1;" d="M 196.976562 49.773438 L 196.976562 24.109375 L 172.289062 24.109375 L 172.289062 49.773438 Z M 196.976562 49.773438 "/>
<path style=" stroke:none;fill-rule:evenodd;fill:rgb(87.4509%,0%,0%);fill-opacity:1;" d="M 135.222656 27.996094 L 125.964844 37.347656 L 135.222656 46.65625 L 144.496094 37.347656 L 135.222656 27.996094 "/>
<path style=" stroke:none;fill-rule:evenodd;fill:rgb(100%,100%,100%);fill-opacity:1;" d="M 184.613281 27.996094 L 175.367188 37.347656 L 184.613281 46.65625 L 193.886719 37.347656 L 184.613281 27.996094 "/>
<path style=" stroke:none;fill-rule:evenodd;fill:rgb(100%,100%,100%);fill-opacity:1;" d="M 196.976562 99.585938 L 196.976562 73.917969 L 172.289062 73.917969 L 172.289062 99.585938 Z M 196.976562 99.585938 "/>
<path style=" stroke:none;fill-rule:evenodd;fill:rgb(87.4509%,0%,0%);fill-opacity:1;" d="M 147.589844 99.585938 L 147.589844 73.917969 L 122.875 73.917969 L 122.875 99.585938 Z M 147.589844 99.585938 "/>
<path style=" stroke:none;fill-rule:evenodd;fill:rgb(87.4509%,0%,0%);fill-opacity:1;" d="M 184.613281 77.808594 L 193.886719 87.144531 L 184.613281 96.46875 L 175.367188 87.144531 L 184.613281 77.808594 "/>
<path style=" stroke:none;fill-rule:evenodd;fill:rgb(100%,100%,100%);fill-opacity:1;" d="M 135.222656 77.808594 L 144.496094 87.144531 L 135.222656 96.46875 L 125.964844 87.144531 L 135.222656 77.808594 "/>
<path style=" stroke:none;fill-rule:evenodd;fill:rgb(100%,100%,100%);fill-opacity:1;" d="M 48.78125 149.394531 L 48.78125 123.71875 L 24.09375 123.71875 L 24.09375 149.394531 Z M 48.78125 149.394531 "/>
<path style=" stroke:none;fill-rule:evenodd;fill:rgb(87.4509%,0%,0%);fill-opacity:1;" d="M 98.1875 149.394531 L 98.1875 123.71875 L 73.484375 123.71875 L 73.484375 149.394531 Z M 98.1875 149.394531 "/>
<path style=" stroke:none;fill-rule:evenodd;fill:rgb(87.4509%,0%,0%);fill-opacity:1;" d="M 36.457031 127.59375 L 27.183594 136.941406 L 36.457031 146.292969 L 45.691406 136.941406 L 36.457031 127.59375 "/>
<path style=" stroke:none;fill-rule:evenodd;fill:rgb(100%,100%,100%);fill-opacity:1;" d="M 85.847656 127.59375 L 76.574219 136.941406 L 85.847656 146.292969 L 95.09375 136.941406 L 85.847656 127.59375 "/>
<path style=" stroke:none;fill-rule:evenodd;fill:rgb(100%,100%,100%);fill-opacity:1;" d="M 147.589844 149.394531 L 147.589844 123.71875 L 122.875 123.71875 L 122.875 149.394531 Z M 147.589844 149.394531 "/>
<path style=" stroke:none;fill-rule:evenodd;fill:rgb(87.4509%,0%,0%);fill-opacity:1;" d="M 196.976562 149.394531 L 196.976562 123.71875 L 172.289062 123.71875 L 172.289062 149.394531 Z M 196.976562 149.394531 "/>
<path style=" stroke:none;fill-rule:evenodd;fill:rgb(87.4509%,0%,0%);fill-opacity:1;" d="M 135.222656 127.59375 L 125.964844 136.941406 L 135.222656 146.292969 L 144.496094 136.941406 L 135.222656 127.59375 "/>
<path style=" stroke:none;fill-rule:evenodd;fill:rgb(100%,100%,100%);fill-opacity:1;" d="M 184.613281 127.59375 L 175.367188 136.941406 L 184.613281 146.292969 L 193.886719 136.941406 L 184.613281 127.59375 "/>
<path style=" stroke:none;fill-rule:evenodd;fill:rgb(100%,100%,100%);fill-opacity:1;" d="M 98.1875 99.585938 L 98.1875 73.917969 L 73.484375 73.917969 L 73.484375 99.585938 Z M 98.1875 99.585938 "/>
<path style=" stroke:none;fill-rule:evenodd;fill:rgb(87.4509%,0%,0%);fill-opacity:1;" d="M 48.78125 99.585938 L 48.78125 73.917969 L 24.09375 73.917969 L 24.09375 99.585938 Z M 48.78125 99.585938 "/>
<path style=" stroke:none;fill-rule:evenodd;fill:rgb(87.4509%,0%,0%);fill-opacity:1;" d="M 85.847656 77.808594 L 95.09375 87.144531 L 85.847656 96.46875 L 76.574219 87.144531 L 85.847656 77.808594 "/>
<path style=" stroke:none;fill-rule:evenodd;fill:rgb(100%,100%,100%);fill-opacity:1;" d="M 36.457031 77.808594 L 45.691406 87.144531 L 36.457031 96.46875 L 27.183594 87.144531 L 36.457031 77.808594 "/>
<path style=" stroke:none;fill-rule:evenodd;fill:rgb(100%,100%,100%);fill-opacity:1;" d="M 48.78125 49.773438 L 48.78125 24.109375 L 24.09375 24.109375 L 24.09375 49.773438 Z M 48.78125 49.773438 "/>
<path style=" stroke:none;fill-rule:evenodd;fill:rgb(87.4509%,0%,0%);fill-opacity:1;" d="M 98.1875 49.773438 L 98.1875 24.109375 L 73.484375 24.109375 L 73.484375 49.773438 Z M 98.1875 49.773438 "/>
<path style=" stroke:none;fill-rule:evenodd;fill:rgb(87.4509%,0%,0%);fill-opacity:1;" d="M 36.457031 27.996094 L 27.183594 37.347656 L 36.457031 46.65625 L 45.691406 37.347656 L 36.457031 27.996094 "/>
<path style=" stroke:none;fill-rule:evenodd;fill:rgb(100%,100%,100%);fill-opacity:1;" d="M 85.847656 27.996094 L 76.574219 37.347656 L 85.847656 46.65625 L 95.09375 37.347656 L 85.847656 27.996094 "/>
<path style=" stroke:none;fill-rule:evenodd;fill:rgb(100%,100%,100%);fill-opacity:1;" d="M 98.1875 299.558594 L 98.1875 273.910156 L 73.484375 273.910156 L 73.484375 299.558594 Z M 98.1875 299.558594 "/>
<path style=" stroke:none;fill-rule:evenodd;fill:rgb(87.4509%,0%,0%);fill-opacity:1;" d="M 48.78125 299.558594 L 48.78125 273.910156 L 24.09375 273.910156 L 24.09375 299.558594 Z M 48.78125 299.558594 "/>
<path style=" stroke:none;fill-rule:evenodd;fill:rgb(87.4509%,0%,0%);fill-opacity:1;" d="M 85.847656 295.683594 L 95.09375 286.332031 L 85.847656 277.011719 L 76.574219 286.332031 L 85.847656 295.683594 "/>
<path style=" stroke:none;fill-rule:evenodd;fill:rgb(100%,100%,100%);fill-opacity:1;" d="M 36.457031 295.683594 L 45.691406 286.332031 L 36.457031 277.011719 L 27.183594 286.332031 L 36.457031 295.683594 "/>
<path style=" stroke:none;fill-rule:evenodd;fill:rgb(87.4509%,0%,0%);fill-opacity:1;" d="M 98.1875 249.773438 L 98.1875 224.097656 L 73.484375 224.097656 L 73.484375 249.773438 Z M 98.1875 249.773438 "/>
<path style=" stroke:none;fill-rule:evenodd;fill:rgb(100%,100%,100%);fill-opacity:1;" d="M 85.847656 245.886719 L 76.574219 236.550781 L 85.847656 227.199219 L 95.09375 236.550781 L 85.847656 245.886719 "/>
<path style=" stroke:none;fill-rule:evenodd;fill:rgb(100%,100%,100%);fill-opacity:1;" d="M 196.976562 199.964844 L 196.976562 174.273438 L 172.289062 174.273438 L 172.289062 199.964844 Z M 196.976562 199.964844 "/>
<path style=" stroke:none;fill-rule:evenodd;fill:rgb(87.4509%,0%,0%);fill-opacity:1;" d="M 147.589844 199.964844 L 147.589844 174.273438 L 122.875 174.273438 L 122.875 199.964844 Z M 147.589844 199.964844 "/>
<path style=" stroke:none;fill-rule:evenodd;fill:rgb(87.4509%,0%,0%);fill-opacity:1;" d="M 184.613281 196.089844 L 193.886719 186.738281 L 184.613281 177.390625 L 175.367188 186.738281 L 184.613281 196.089844 "/>
<path style=" stroke:none;fill-rule:evenodd;fill:rgb(100%,100%,100%);fill-opacity:1;" d="M 135.222656 196.089844 L 144.496094 186.738281 L 135.222656 177.390625 L 125.964844 186.738281 L 135.222656 196.089844 "/>
<path style=" stroke:none;fill-rule:evenodd;fill:rgb(100%,100%,100%);fill-opacity:1;" d="M 98.1875 199.964844 L 98.1875 174.273438 L 73.484375 174.273438 L 73.484375 199.964844 Z M 98.1875 199.964844 "/>
<path style=" stroke:none;fill-rule:evenodd;fill:rgb(87.4509%,0%,0%);fill-opacity:1;" d="M 48.78125 199.964844 L 48.78125 174.273438 L 24.09375 174.273438 L 24.09375 199.964844 Z M 48.78125 199.964844 "/>
<path style=" stroke:none;fill-rule:evenodd;fill:rgb(87.4509%,0%,0%);fill-opacity:1;" d="M 85.847656 196.089844 L 95.09375 186.738281 L 85.847656 177.390625 L 76.574219 186.738281 L 85.847656 196.089844 "/>
<path style=" stroke:none;fill-rule:evenodd;fill:rgb(100%,100%,100%);fill-opacity:1;" d="M 36.457031 196.089844 L 45.691406 186.738281 L 36.457031 177.390625 L 27.183594 186.738281 L 36.457031 196.089844 "/>
<path style=" stroke:none;fill-rule:evenodd;fill:rgb(100%,100%,100%);fill-opacity:1;" d="M 147.589844 249.773438 L 147.589844 224.097656 L 122.875 224.097656 L 122.875 249.773438 Z M 147.589844 249.773438 "/>
<path style=" stroke:none;fill-rule:evenodd;fill:rgb(87.4509%,0%,0%);fill-opacity:1;" d="M 196.976562 249.773438 L 196.976562 224.097656 L 172.289062 224.097656 L 172.289062 249.773438 Z M 196.976562 249.773438 "/>
<path style=" stroke:none;fill-rule:evenodd;fill:rgb(87.4509%,0%,0%);fill-opacity:1;" d="M 135.222656 245.886719 L 125.964844 236.550781 L 135.222656 227.199219 L 144.496094 236.550781 L 135.222656 245.886719 "/>
<path style=" stroke:none;fill-rule:evenodd;fill:rgb(100%,100%,100%);fill-opacity:1;" d="M 184.613281 245.886719 L 175.367188 236.550781 L 184.613281 227.199219 L 193.886719 236.550781 L 184.613281 245.886719 "/>
<path style=" stroke:none;fill-rule:evenodd;fill:rgb(100%,100%,100%);fill-opacity:1;" d="M 196.976562 299.558594 L 196.976562 273.910156 L 172.289062 273.910156 L 172.289062 299.558594 Z M 196.976562 299.558594 "/>
<path style=" stroke:none;fill-rule:evenodd;fill:rgb(87.4509%,0%,0%);fill-opacity:1;" d="M 147.589844 299.558594 L 147.589844 273.910156 L 122.875 273.910156 L 122.875 299.558594 Z M 147.589844 299.558594 "/>
<path style=" stroke:none;fill-rule:evenodd;fill:rgb(87.4509%,0%,0%);fill-opacity:1;" d="M 184.613281 295.683594 L 193.886719 286.332031 L 184.613281 277.011719 L 175.367188 286.332031 L 184.613281 295.683594 "/>
<path style=" stroke:none;fill-rule:evenodd;fill:rgb(100%,100%,100%);fill-opacity:1;" d="M 135.222656 295.683594 L 144.496094 286.332031 L 135.222656 277.011719 L 125.964844 286.332031 L 135.222656 295.683594 "/>
<path style=" stroke:none;fill-rule:evenodd;fill:rgb(87.4509%,0%,0%);fill-opacity:1;" d="M 17.910156 261.441406 L 11.742188 255.207031 L 54.949219 211.644531 L 61.132812 217.878906 Z M 17.910156 261.441406 "/>
<path style=" stroke:none;fill-rule:evenodd;fill:rgb(100%,100%,100%);fill-opacity:1;" d="M 48.78125 249.773438 L 48.78125 224.097656 L 24.09375 224.097656 L 24.09375 249.773438 Z M 48.78125 249.773438 "/>
<path style=" stroke:none;fill-rule:evenodd;fill:rgb(87.4509%,0%,0%);fill-opacity:1;" d="M 36.457031 245.886719 L 27.183594 236.550781 L 36.457031 227.199219 L 45.691406 236.550781 L 36.457031 245.886719 "/>
<path style="fill:none;stroke-width:2.99547;stroke-linecap:butt;stroke-linejoin:round;stroke:rgb(87.4509%,0%,0%);stroke-opacity:1;stroke-miterlimit:10;" d="M 162.230832 236.572103 L 4.480965 236.572103 L 4.480965 4.573547 L 162.230832 4.573547 Z M 162.230832 236.572103 " transform="matrix(1.334639,0,0,1.335171,0,-0.000999886)"/>
</g>
</svg>
